<svg width="300" height="500" viewBox="0 0 300 500" fill="none" xmlns="http://www.w3.org/2000/svg">
<rect width="300" height="500" fill="#1A1A1A"/>
<path d="M150 207.75C126.704 207.75 107.75 226.704 107.75 250C107.75 273.296 126.704 292.25 150 292.25C173.296 292.25 192.25 273.296 192.25 250C192.25 226.704 173.296 207.75 150 207.75ZM139.799 231.479C142.373 228.751 145.994 227.25 150 227.25C154.006 227.25 157.595 228.761 160.179 231.503C162.797 234.282 164.07 238.016 163.77 242.029C163.169 250 156.994 256.5 150 256.5C143.006 256.5 136.819 250 136.23 242.027C135.932 237.981 137.203 234.235 139.799 231.479V231.479Z" fill="white"/>
<path d="M150 285.75C145.228 285.753 140.503 284.798 136.107 282.941C131.71 281.084 127.731 278.363 124.406 274.94C126.311 272.224 128.737 269.915 131.544 268.147C136.722 264.828 143.275 263 150 263C156.725 263 163.278 264.828 168.45 268.147C171.259 269.914 173.688 272.223 175.594 274.94C172.269 278.364 168.29 281.085 163.894 282.942C159.497 284.799 154.773 285.754 150 285.75V285.75Z" fill="#1A1A1A"/>
</svg>
